<svg
   xmlns="http://www.w3.org/2000/svg"
   enable-background="new 0 0 333.902 169.492"
   viewBox="0 0 316.16631 119.74984"
   height="119.74984"
   width="316.16632"
   y="0px"
   x="0px"
   version="1.1">
   
	<defs id="defs25" />
	<g transform="translate(-10.34,-12.50327)" id="g3">
	
	<path
       style="fill:#7f563c"
       id="path5"
       d="m 84.965,87.874 0,29.317 c 0,4.632 -1.05,8.104 -3.15,10.419 -2.1,2.314 -4.873,3.474 -8.318,3.474 -3.339,0 -6.045,-1.159 -8.117,-3.474 -2.073,-2.314 -3.109,-5.787 -3.109,-10.419 l 0,-35.133 c 0,-5.545 -0.189,-9.854 -0.565,-12.923 -0.377,-3.068 -1.4,-5.585 -3.069,-7.551 -1.669,-1.966 -4.309,-2.948 -7.915,-2.948 -7.216,0 -11.967,2.477 -14.255,7.431 -2.289,4.954 -3.433,12.062 -3.433,21.322 l 0,29.802 c 0,4.577 -1.037,8.037 -3.109,10.379 -2.073,2.342 -4.806,3.514 -8.198,3.514 -3.339,0 -6.071,-1.172 -8.197,-3.514 -2.128,-2.342 -3.19,-5.802 -3.19,-10.379 l 0,-63.078 c 0,-4.146 0.955,-7.295 2.867,-9.449 1.911,-2.153 4.429,-3.23 7.552,-3.23 3.015,0 5.532,1.01 7.552,3.028 2.019,2.02 3.028,4.806 3.028,8.359 l 0,2.1 c 3.822,-4.575 7.915,-7.941 12.276,-10.096 4.361,-2.152 9.208,-3.23 14.538,-3.23 5.545,0 10.311,1.104 14.296,3.312 3.983,2.209 7.269,5.547 9.854,10.015 3.715,-4.522 7.699,-7.874 11.953,-10.055 4.253,-2.181 8.965,-3.271 14.134,-3.271 6.03,0 11.227,1.186 15.588,3.554 4.361,2.37 7.618,5.763 9.772,10.177 1.885,3.985 2.827,10.257 2.827,18.818 l 0,43.048 c 0,4.632 -1.05,8.104 -3.15,10.419 -2.1,2.314 -4.873,3.474 -8.318,3.474 -3.339,0 -6.071,-1.172 -8.198,-3.514 -2.127,-2.342 -3.189,-5.802 -3.189,-10.379 l 0,-37.073 c 0,-4.737 -0.202,-8.533 -0.606,-11.388 -0.403,-2.854 -1.494,-5.25 -3.271,-7.188 -1.777,-1.938 -4.47,-2.907 -8.077,-2.907 -2.907,0 -5.667,0.861 -8.278,2.584 -2.612,1.725 -4.644,4.039 -6.098,6.946 -1.619,3.714 -2.427,10.285 -2.427,19.707 z" /></g><g
     transform="translate(-10.34,-12.50327)"
     id="g7">
	 
	 <path
       style="fill:#7f563c"
       id="path9"
       d="m 197.355,121.102 0,-70.392 c 0,-3.25 0.977,-5.708 2.93,-7.373 1.953,-1.664 4.588,-2.496 7.906,-2.496 3.316,0 5.992,0.822 8.025,2.467 2.033,1.646 3.051,4.112 3.051,7.402 l 0,70.392 c 0,3.29 -1.031,5.758 -3.091,7.401 -2.061,1.645 -4.723,2.468 -7.985,2.468 -3.211,0 -5.819,-0.853 -7.826,-2.557 -2.006,-1.703 -3.01,-4.14 -3.01,-7.312 z" /></g><g
     transform="translate(-10.34,-12.50327)"
     id="g11"><path
       style="fill:#7f563c"
       id="path13"
       d="m 326.503,85.769 c 0.068,6.661 -0.907,12.813 -2.923,18.456 -2.019,5.644 -4.97,10.506 -8.859,14.586 -3.89,4.079 -8.554,7.225 -13.99,9.437 -5.436,2.212 -11.567,3.353 -18.391,3.422 -6.769,0.069 -12.866,-0.961 -18.293,-3.089 -5.426,-2.127 -10.14,-5.206 -14.139,-9.231 -4.001,-4.026 -7.051,-8.801 -9.154,-14.32 -2.104,-5.519 -3.189,-11.637 -3.258,-18.352 -0.068,-6.768 0.904,-12.975 2.922,-18.62 2.016,-5.643 4.941,-10.477 8.778,-14.502 3.835,-4.023 8.498,-7.142 13.989,-9.355 5.492,-2.211 11.567,-3.353 18.228,-3.421 6.769,-0.068 12.921,0.962 18.457,3.088 5.536,2.127 10.29,5.191 14.262,9.19 3.973,4 7.009,8.772 9.113,14.319 2.104,5.547 3.19,11.678 3.258,18.392 z m -22.436,0.23 c -0.093,-9.115 -2.171,-16.192 -6.234,-21.229 -4.064,-5.035 -9.482,-7.518 -16.251,-7.449 -4.367,0.045 -8.204,1.218 -11.51,3.517 -3.308,2.299 -5.84,5.669 -7.595,10.108 -1.757,4.44 -2.604,9.608 -2.544,15.504 0.06,5.842 0.998,10.937 2.816,15.284 1.818,4.35 4.391,7.668 7.718,9.953 3.326,2.288 7.228,3.407 11.703,3.361 6.769,-0.068 12.135,-2.675 16.095,-7.821 3.96,-5.144 5.894,-12.221 5.802,-21.228 z" /></g><path
     style="fill:#6c3b18"
     id="path15"
     d="m 163.786,44.28473 c 0,0 10.045,-3.024 9.362,-16.677 -0.684,-13.65 -7.802,-26.1340003 -15.31,-27.20600033 -7.511,-1.075 -13.068,0 -11.314,3.31500003 1.757,3.314 4.584,6.8250003 2.536,11.0190003 0,0 -3.315,-7.8000003 -6.826,-7.2180003 -3.511,0.588 -5.56,9.8520003 -4.975,18.3330003 0.586,8.485 2.439,14.924 9.168,18.434 6.73,3.51 17.359,0 17.359,0 z" /><g
     transform="translate(-10.34,-12.50327)"
     id="g17"><path
       style="fill:#e4ac25"
       id="path19"
       d="m 168.944,73.192 c 0,0 -9.236,10.949 -2.032,28.273 4.008,9.636 8.821,12.38 4.91,21.774" /><path
       style="fill:#e4ac25"
       id="path21"
       d="m 162.58,66.828 c -4.875,5.935 -7.032,13.28 -7.406,20.89 -0.342,6.964 1.939,13.652 4.681,19.921 2.363,5.401 5.403,7.614 3.289,13.207 -1.736,4.594 1.887,9.861 6.286,11.071 5.062,1.392 9.338,-1.702 11.071,-6.286 1.988,-5.26 2.386,-10.829 0.29,-16.123 -2.095,-5.293 -5.315,-9.922 -6.894,-15.438 -1.142,-3.988 -0.898,-7.9 0.301,-11.798 0.859,-2.792 -0.676,1.224 0.39,-1.058 0.281,-0.601 0.613,-1.177 0.945,-1.75 0.56,-0.965 2.125,-2.771 -0.225,0.091 3.111,-3.787 3.721,-9.007 0,-12.728 -3.214,-3.213 -9.611,-3.795 -12.728,0.001 l 0,0 z" /></g></svg>
